<svg xmlns="http://www.w3.org/2000/svg" viewBox="0 0 32 32">
  <!-- Smart signal -->
  <g fill="none" stroke="#30c6f2" stroke-width="2" stroke-linecap="round">
    <path d="M22.5 5.5c2.2.5 3.8 2.1 4.3 4.3"/>
    <path d="M23 9c.8.2 1.4.8 1.6 1.6"/>
  </g>

  <!-- Cute ship cabin -->
  <g stroke="#ff7417" stroke-width="2.2" stroke-linecap="round" stroke-linejoin="round">
    <path d="M9 15V9h10l4 6" fill="none"/>
    <path d="M13 9V6h4v3" fill="none"/>
    <path d="M11.5 12h1M16 12h1" fill="none"/>
    <path d="M4.5 16h23l-3 8.5c-2.7 1.3-5.5 2-8.5 2s-5.8-.7-8.5-2Z" fill="#ff7417"/>
  </g>

  <!-- Safety shield and check -->
  <path d="M16 15.7c2 1.2 3.8 1.5 5.5 1.6v3.2c0 3.2-2.3 5.3-5.5 6.4-3.2-1.1-5.5-3.2-5.5-6.4v-3.2c1.7-.1 3.5-.4 5.5-1.6Z" fill="#07131f" stroke="#30c6f2" stroke-width="1.6" stroke-linejoin="round"/>
  <path d="m13.5 21 1.7 1.7 3.6-3.7" fill="none" stroke="#fff" stroke-width="1.8" stroke-linecap="round" stroke-linejoin="round"/>
</svg>
